<?xml version="1.0" encoding="UTF-8" standalone="no"?>
<svg width="161px" height="151px" viewBox="0 0 161 151" version="1.1" xmlns="http://www.w3.org/2000/svg" xmlns:xlink="http://www.w3.org/1999/xlink" xmlns:sketch="http://www.bohemiancoding.com/sketch/ns">
    <!-- Generator: Sketch 3.4 (15575) - http://www.bohemiancoding.com/sketch -->
    <title>API Workbench Dark</title>
    <desc>Created with Sketch.</desc>
    <defs></defs>
    <g id="Page-1" stroke="none" stroke-width="1" fill="none" fill-rule="evenodd" sketch:type="MSPage">
        <g id="API-Workbench-Dark" sketch:type="MSLayerGroup">
            <path d="M120.517,116.201 L40.652,116.201 C18.358,116.201 0.221,98.064 0.221,75.77 C0.221,53.476 18.358,35.34 40.652,35.34 L103.638,35.34 L103.638,36.34 L40.652,36.34 C18.91,36.34 1.221,54.028 1.221,75.77 C1.221,97.512 18.91,115.201 40.652,115.201 L120.517,115.201 C142.259,115.201 159.948,97.512 159.948,75.77 C159.948,61.742 152.397,48.656 140.243,41.621 L140.744,40.756 C153.206,47.969 160.948,61.386 160.948,75.77 C160.948,98.064 142.811,116.201 120.517,116.201" id="Fill-49" fill="#58595A" sketch:type="MSShapeGroup"></path>
            <path d="M60.617,150.763 C53.625,150.763 46.634,148.965 40.403,145.367 C21.096,134.219 14.458,109.444 25.604,90.137 L65.536,20.972 C70.936,11.62 79.655,4.929 90.086,2.134 C100.516,-0.661 111.414,0.774 120.766,6.175 C140.073,17.321 146.711,42.096 135.565,61.404 L104.072,115.951 L103.206,115.451 L134.699,60.904 C145.57,42.074 139.095,17.911 120.266,7.04 C111.145,1.773 100.518,0.374 90.345,3.1 C80.172,5.827 71.668,12.351 66.402,21.472 L26.47,90.637 C15.599,109.467 22.074,133.63 40.903,144.502 C53.051,151.515 68.158,151.519 80.33,144.51 L80.829,145.378 C74.592,148.968 67.604,150.763 60.617,150.763" id="Fill-50" fill="#58595A" sketch:type="MSShapeGroup"></path>
            <g id="Fill-51" transform="translate(20.000000, 0.000000)" fill="#58595A" sketch:type="MSShapeGroup">
                <path d="M80.619,150.776 C66.635,150.776 53.017,143.524 45.536,130.568 L14.043,76.021 L14.91,75.521 L46.402,130.068 C57.274,148.897 81.438,155.372 100.266,144.502 C119.095,133.63 125.57,109.467 114.699,90.637 L74.767,21.472 C69.5,12.351 60.997,5.827 50.824,3.1 C40.65,0.375 30.024,1.774 20.903,7.04 C8.754,14.054 1.197,27.135 1.181,41.179 L0.181,41.177 C0.197,26.779 7.946,13.366 20.403,6.175 C29.755,0.773 40.651,-0.661 51.083,2.134 C61.514,4.929 70.233,11.62 75.633,20.972 L115.565,90.137 C126.711,109.444 120.073,134.219 100.766,145.367 C94.416,149.034 87.473,150.776 80.619,150.776"></path>
            </g>
            <path d="M21.431,42.478 C22.148,42.063 22.394,41.146 21.98,40.428 C21.566,39.711 20.648,39.465 19.931,39.879 C19.213,40.294 18.967,41.211 19.382,41.928 C19.796,42.646 20.713,42.892 21.431,42.478" id="Fill-52" fill="#989A9B" sketch:type="MSShapeGroup"></path>
            <path d="M74.434,91.211 L74.443,91.226 C74.672,91.592 75.056,92.207 75.86,92.207 C76.684,92.207 77.353,91.537 77.353,90.713 C77.353,90.43 77.282,90.188 77.13,89.955 L59.91,60.043 C59.684,59.606 59.194,59.335 58.626,59.335 C58.112,59.335 57.6,59.612 57.353,60.025 L57.199,60.292 C57.028,60.588 57.084,60.997 57.227,61.327 L74.434,91.211" id="Fill-53" fill="#02BCB7" sketch:type="MSShapeGroup"></path>
            <path d="M103.313,59.335 C102.489,59.335 101.82,60.005 101.82,60.828 L101.82,90.713 C101.82,91.537 102.489,92.207 103.313,92.207 C104.136,92.207 104.805,91.537 104.805,90.713 L104.805,60.828 C104.805,60.005 104.136,59.335 103.313,59.335" id="Fill-54" fill="#02BCB7" sketch:type="MSShapeGroup"></path>
            <path d="M83.246,59.756 L71.611,59.756 L73.222,62.58 L83.146,62.58 C85.074,62.58 86.889,63.353 88.257,64.758 C89.62,66.156 90.37,68.001 90.37,69.952 C90.37,71.903 89.62,73.748 88.257,75.147 C86.889,76.552 85.074,77.325 83.146,77.325 L81.635,77.325 L83.246,80.149 C88.821,80.149 93.356,75.575 93.356,69.952 C93.356,64.33 88.821,59.756 83.246,59.756" id="Fill-55" fill="#02BCB7" sketch:type="MSShapeGroup"></path>
            <path d="M53.808,80.149 L55.433,77.327 L68.223,77.327 L68.223,80.149 L53.808,80.149" id="Fill-56" fill="#02BCB7" sketch:type="MSShapeGroup"></path>
            <path d="M100.638,35.839 C100.638,37.496 101.981,38.839 103.638,38.839 C105.295,38.839 106.638,37.496 106.638,35.839 C106.638,34.182 105.295,32.839 103.638,32.839 C101.981,32.839 100.638,34.182 100.638,35.839" id="Fill-57" fill="#02BCB7" sketch:type="MSShapeGroup"></path>
            <path d="M105.139,113.103 C103.704,112.274 101.869,112.766 101.041,114.201 C100.212,115.636 100.704,117.471 102.139,118.299 C103.574,119.127 105.409,118.636 106.237,117.201 C107.065,115.766 106.574,113.931 105.139,113.103" id="Fill-58" fill="#02BCB7" sketch:type="MSShapeGroup"></path>
            <path d="M35.976,78.369 C37.411,77.54 37.903,75.706 37.074,74.271 C36.246,72.836 34.411,72.344 32.976,73.173 C31.541,74.001 31.05,75.836 31.878,77.271 C32.707,78.706 34.541,79.197 35.976,78.369" id="Fill-59" fill="#02BCB7" sketch:type="MSShapeGroup"></path>
            <path d="M138.994,41.188 C138.994,42.017 139.665,42.688 140.494,42.688 C141.322,42.688 141.994,42.017 141.994,41.188 C141.994,40.36 141.322,39.688 140.494,39.688 C139.665,39.688 138.994,40.36 138.994,41.188" id="Fill-60" fill="#989A9B" sketch:type="MSShapeGroup"></path>
            <path d="M81.329,143.645 C80.612,143.231 79.694,143.477 79.28,144.194 C78.866,144.912 79.112,145.829 79.829,146.243 C80.546,146.658 81.464,146.412 81.878,145.694 C82.292,144.977 82.046,144.06 81.329,143.645" id="Fill-61" fill="#989A9B" sketch:type="MSShapeGroup"></path>
        </g>
    </g>
</svg>